<svg xmlns="http://www.w3.org/2000/svg" xmlns:xlink="http://www.w3.org/1999/xlink" width="33.38983154296875" height="18.12994384765625" version="1.1"><rect id="backgroundrect" width="100%" height="100%" x="0" y="0" fill="none" stroke="none"/>
    <!-- Generator: Sketch 49.2 (51160) - http://www.bohemiancoding.com/sketch -->
    <title>Artboard</title>
    <desc>Created with Sketch.</desc>
    <defs/>
    
<g class="currentLayer" style=""><title>Layer 1</title>
    <g id="Artboard" stroke="none" stroke-width="1" fill="#58cd97" fill-rule="evenodd" class="" fill-opacity="1">
        <g id="ram_icon" fill="#58cd97" fill-rule="nonzero" fill-opacity="1">
            <path d="M20.579445469521485,10.01164026501419 L20.579445469521485,9.641182675014191 C20.579445469521485,9.54856827501419 20.653536989521484,9.45595388501419 20.764674259521485,9.45595388501419 L21.876047029521484,9.45595388501419 C21.968661429521482,9.45595388501419 22.061275829521485,9.530045395014191 22.061275829521485,9.641182675014191 L22.061275829521485,10.01164026501419 C22.061275829521485,10.10425466501419 21.987184309521485,10.19686906501419 21.876047029521484,10.19686906501419 L20.764674259521485,10.19686906501419 C20.653536989521484,10.19686906501419 20.579445469521485,10.122777545014191 20.579445469521485,10.01164026501419 z" id="Shape" fill="#58cd97" fill-opacity="1"/>
            <path d="M20.579445469521485,8.52980990501419 L20.579445469521485,8.15935232501419 C20.579445469521485,8.066737925014191 20.653536989521484,7.974123525014191 20.764674259521485,7.974123525014191 L21.876047029521484,7.974123525014191 C21.968661429521482,7.974123525014191 22.061275829521485,8.04821504501419 22.061275829521485,8.15935232501419 L22.061275829521485,8.52980990501419 C22.061275829521485,8.62242430501419 21.987184309521485,8.71503870501419 21.876047029521484,8.71503870501419 L20.764674259521485,8.71503870501419 C20.653536989521484,8.71503870501419 20.579445469521485,8.640947185014191 20.579445469521485,8.52980990501419 z" id="Shape" fill="#58cd97" fill-opacity="1"/>
            <path d="M20.579445469521485,11.49347064501419 L20.579445469521485,11.12301304501419 C20.579445469521485,11.030398645014191 20.653536989521484,10.93778424501419 20.764674259521485,10.93778424501419 L21.876047029521484,10.93778424501419 C21.968661429521482,10.93778424501419 22.061275829521485,11.01187574501419 22.061275829521485,11.12301304501419 L22.061275829521485,11.49347064501419 C22.061275829521485,11.58608504501419 21.987184309521485,11.67869944501419 21.876047029521484,11.67869944501419 L20.764674259521485,11.67869944501419 C20.653536989521484,11.67869944501419 20.579445469521485,11.604607945014191 20.579445469521485,11.49347064501419 z" id="Shape" fill="#58cd97" fill-opacity="1"/>
            <path d="M20.579445469521485,7.047979555014191 L20.579445469521485,6.677521965014191 C20.579445469521485,6.58490756501419 20.653536989521484,6.492293165014191 20.764674259521485,6.492293165014191 L21.876047029521484,6.492293165014191 C21.968661429521482,6.492293165014191 22.061275829521485,6.5663846850141905 22.061275829521485,6.677521965014191 L22.061275829521485,7.047979555014191 C22.061275829521485,7.140593955014191 21.987184309521485,7.233208345014191 21.876047029521484,7.233208345014191 L20.764674259521485,7.233208345014191 C20.653536989521484,7.233208345014191 20.579445469521485,7.159116825014191 20.579445469521485,7.047979555014191 z" id="Shape" fill="#58cd97" fill-opacity="1"/>
            <path d="M20.579445469521485,14.45713134501419 L20.579445469521485,14.08667374501419 C20.579445469521485,13.994059345014191 20.653536989521484,13.901444945014191 20.764674259521485,13.901444945014191 L21.876047029521484,13.901444945014191 C21.968661429521482,13.901444945014191 22.061275829521485,13.97553644501419 22.061275829521485,14.08667374501419 L22.061275829521485,14.45713134501419 C22.061275829521485,14.54974574501419 21.987184309521485,14.642360145014191 21.876047029521484,14.642360145014191 L20.764674259521485,14.642360145014191 C20.653536989521484,14.642360145014191 20.579445469521485,14.568268645014191 20.579445469521485,14.45713134501419 z" id="Shape" fill="#58cd97" fill-opacity="1"/>
            <path d="M21.913092789521485,16.86510564501419 C21.987184309521485,16.86510564501419 22.061275829521485,16.79101414501419 22.061275829521485,16.71692264501419 L22.061275829521485,15.38327534501419 L20.579445469521485,15.38327534501419 L20.579445469521485,16.86510564501419 L21.913092789521485,16.86510564501419 z" id="Shape" fill="#58cd97" fill-opacity="1"/>
            <path d="M20.579445469521485,12.97530094501419 L20.579445469521485,12.60484334501419 C20.579445469521485,12.51222894501419 20.653536989521484,12.419614545014191 20.764674259521485,12.419614545014191 L21.876047029521484,12.419614545014191 C21.968661429521482,12.419614545014191 22.061275829521485,12.49370614501419 22.061275829521485,12.60484334501419 L22.061275829521485,12.97530094501419 C22.061275829521485,13.06791534501419 21.987184309521485,13.160529745014191 21.876047029521484,13.160529745014191 L20.764674259521485,13.160529745014191 C20.653536989521484,13.160529745014191 20.579445469521485,13.08643824501419 20.579445469521485,12.97530094501419 z" id="Shape" fill="#58cd97" fill-opacity="1"/>
            <path d="M20.579445469521485,5.64024071501419 L20.579445469521485,5.121600095014191 C20.579445469521485,5.0660314550141905 20.635014109521485,5.010462815014191 20.690582749521482,5.010462815014191 L21.950138549521483,5.010462815014191 C22.005707189521484,5.010462815014191 22.061275829521485,5.0660314550141905 22.061275829521485,5.121600095014191 L22.061275829521485,5.64024071501419 C22.061275829521485,5.695809355014191 22.005707189521484,5.751377995014191 21.950138549521483,5.751377995014191 L20.690582749521482,5.751377995014191 C20.635014109521485,5.751377995014191 20.579445469521485,5.695809355014191 20.579445469521485,5.64024071501419 z" id="Shape" fill="#58cd97" fill-opacity="1"/>
            <polygon id="Shape" points="14.652123928070068,11.678699314594269 14.652123928070068,10.19686871767044 17.615784645080566,10.19686871767044 17.615784645080566,11.678699314594269 " fill="#58cd97" fill-opacity="1"/>
            <polygon id="Shape" points="14.652123928070068,4.269547760486603 14.652123928070068,2.7877171635627747 17.615784645080566,2.7877171635627747 17.615784645080566,4.269547760486603 " fill="#58cd97" fill-opacity="1"/>
            <polygon id="Shape" points="14.652123928070068,7.974123775959015 14.652123928070068,6.492293179035187 17.615784645080566,6.492293179035187 17.615784645080566,7.974123775959015 " fill="#58cd97" fill-opacity="1"/>
            <path d="M12.429378509521484,0.9169064550141908 L12.429378509521484,17.23556324501419 C12.429378509521484,17.43931494501419 12.596084424521484,17.587497945014192 12.781313219521484,17.587497945014192 L19.468072699521485,17.587497945014192 C19.671824379521485,17.587497945014192 19.820007409521484,17.420792045014192 19.820007409521484,17.23556324501419 L19.820007409521484,0.9169064550141908 C19.820007409521484,0.7131547810141907 19.653301499521483,0.5649717450141907 19.468072699521485,0.5649717450141907 L12.781313219521484,0.5649717450141907 C12.596084424521484,0.5649717450141907 12.429378509521484,0.7316776600141908 12.429378509521484,0.9169064550141908 zM17.726922029521482,13.160529745014191 C18.078856739521484,13.160529745014191 18.356699929521483,13.43837294501419 18.356699929521483,13.79030764501419 L18.356699929521483,15.49441254501419 C18.356699929521483,15.84634724501419 18.078856739521484,16.124190445014193 17.726922029521482,16.124190445014193 L14.540986769521485,16.124190445014193 C14.189052059521485,16.124190445014193 13.911208869521484,15.84634724501419 13.911208869521484,15.49441254501419 L13.911208869521484,13.79030764501419 C13.911208869521484,13.43837294501419 14.189052059521485,13.160529745014191 14.540986769521485,13.160529745014191 L17.726922029521482,13.160529745014191 zM17.726922029521482,9.45595388501419 C18.078856739521484,9.45595388501419 18.356699929521483,9.733797075014191 18.356699929521483,10.085731785014191 L18.356699929521483,11.78983664501419 C18.356699929521483,12.141771445014191 18.078856739521484,12.419614545014191 17.726922029521482,12.419614545014191 L14.540986769521485,12.419614545014191 C14.189052059521485,12.419614545014191 13.911208869521484,12.141771445014191 13.911208869521484,11.78983664501419 L13.911208869521484,10.085731785014191 C13.911208869521484,9.733797075014191 14.189052059521485,9.45595388501419 14.540986769521485,9.45595388501419 L17.726922029521482,9.45595388501419 zM17.726922029521482,5.751377995014191 C18.078856739521484,5.751377995014191 18.356699929521483,6.02922118501419 18.356699929521483,6.3811558950141904 L18.356699929521483,8.08526080501419 C18.356699929521483,8.43719551501419 18.078856739521484,8.71503870501419 17.726922029521482,8.71503870501419 L14.540986769521485,8.71503870501419 C14.189052059521485,8.71503870501419 13.911208869521484,8.43719551501419 13.911208869521484,8.08526080501419 L13.911208869521484,6.3811558950141904 C13.911208869521484,6.02922118501419 14.189052059521485,5.751377995014191 14.540986769521485,5.751377995014191 L17.726922029521482,5.751377995014191 zM17.726922029521482,2.0468021050141907 C18.078856739521484,2.0468021050141907 18.356699929521483,2.3246452950141907 18.356699929521483,2.676580005014191 L18.356699929521483,4.380684915014191 C18.356699929521483,4.73261962501419 18.078856739521484,5.010462815014191 17.726922029521482,5.010462815014191 L14.540986769521485,5.010462815014191 C14.189052059521485,5.010462815014191 13.911208869521484,4.73261962501419 13.911208869521484,4.380684915014191 L13.911208869521484,2.676580005014191 C13.911208869521484,2.3246452950141907 14.189052059521485,2.0468021050141907 14.540986769521485,2.0468021050141907 L17.726922029521482,2.0468021050141907 z" id="Shape" fill="#58cd97" fill-opacity="1"/>
            <polygon id="Shape" points="14.652123928070068,15.383275806903839 14.652123928070068,13.901445209980011 17.615784645080566,13.901445209980011 17.615784645080566,15.383275806903839 " fill="#58cd97" fill-opacity="1"/>
            <path d="M20.579445469521485,4.084318845014191 L20.579445469521485,3.7138612550141907 C20.579445469521485,3.6212468550141907 20.653536989521484,3.5286324550141908 20.764674259521485,3.5286324550141908 L21.876047029521484,3.5286324550141908 C21.968661429521482,3.5286324550141908 22.061275829521485,3.602723975014191 22.061275829521485,3.7138612550141907 L22.061275829521485,4.084318845014191 C22.061275829521485,4.176933235014191 21.987184309521485,4.269547635014191 21.876047029521484,4.269547635014191 L20.764674259521485,4.269547635014191 C20.653536989521484,4.269547635014191 20.579445469521485,4.19545611501419 20.579445469521485,4.084318845014191 z" id="Shape" fill="#58cd97" fill-opacity="1"/>
            <path d="M20.690582749521482,2.7877172750141908 L21.931615669521484,2.7877172750141908 C22.005707189521484,2.7877172750141908 22.042752949521486,2.7321486450141905 22.042752949521486,2.676580005014191 L22.042752949521486,1.5096385970141908 C22.042752949521486,1.3985013200141907 21.950138549521483,1.3058869230141907 21.839001269521482,1.3058869230141907 L20.672059869521483,1.3058869230141907 C20.597968349521484,1.3058869230141907 20.560922589521482,1.3614555610141907 20.560922589521482,1.4170242000141906 L20.560922589521482,2.658057125014191 C20.579445469521485,2.7321486450141905 20.635014109521485,2.7877172750141908 20.690582749521482,2.7877172750141908 z" id="Shape" fill="#58cd97" fill-opacity="1" transform=""/>
        </g>
    </g></g></svg>