<?xml version="1.0" encoding="utf-8"?>
<!-- Generator: Adobe Illustrator 22.1.0, SVG Export Plug-In . SVG Version: 6.00 Build 0)  -->
<svg version="1.1" id="Layer_1" xmlns="http://www.w3.org/2000/svg" xmlns:xlink="http://www.w3.org/1999/xlink" x="0px" y="0px"
	 viewBox="0 0 250.3 92.7" style="enable-background:new 0 0 250.3 92.7;" xml:space="preserve">
<style type="text/css">
	.st0{fill:#008CF4;}
	.st1{fill:#0FBBA2;}
</style>
<title>UCXMarket_Logo</title>
<g id="Layer_2_1_">
	<g id="Layer_1-2">
		<g id="Layer_2-2">
			<g id="Layer_1-2-2">
				<polygon class="st0" points="208.9,41.5 221.7,62.1 200.7,62.1 192.3,51.6 				"/>
				<polygon class="st0" points="201.4,21.5 210.9,12.5 250.3,12.5 210.1,36.1 				"/>
				<polygon class="st1" points="152.6,0 183.6,0 205.8,36.3 182.5,36.3 				"/>
				<polygon class="st1" points="205,39.8 151.6,71.9 143.4,71.9 181.7,39.8 				"/>
				<path class="st0" d="M58.1,12.7h23l-5.7,29.7c-0.6,3-1.9,5.8-3.7,8.3c-2.2,2.8-4.9,5.2-8,6.9c-3.2,1.9-6.7,3.3-10.4,4.1
					c-5.6,1.2-11.4,1.7-17.1,1.7c-3.8,0-7.8-0.2-12.2-0.5c-3.7-0.2-7.3-0.9-10.8-2c-2.7-1-5.2-2.4-7.4-4.3c-1.9-1.5-3.3-3.4-4-5.7
					c-0.8-2.7-1-5.6-0.6-8.4l5.7-29.7h23l-5.8,30.3c-0.5,2.7,1.1,4.8,3.2,6.4s5.1,2.3,9.3,2.3c3.5,0.1,7-0.6,10.1-2.3
					c2.6-1.5,5.1-3.6,5.6-6.4L58.1,12.7z"/>
				<path class="st0" d="M103.6,48.2H153l-2.9,14h-45.8c-3.8,0.1-7.5-0.5-11.1-1.6c-3-0.9-5.8-2.5-8.1-4.7c-2.2-2.1-3.7-4.8-4.4-7.8
					c-0.8-3.5-0.8-7.2,0-10.7c0.7-3.9,2.2-7.5,4.4-10.8c2-3,4.6-5.7,7.6-7.8c3.1-2.1,6.4-3.7,10-4.7c3.8-1.1,7.8-1.6,11.8-1.6h45.8
					l-3.1,15.1h-49.4L103.6,48.2z"/>
			</g>
		</g>
		<polygon class="st1" points="20.9,92.7 23.6,79.5 23.5,79.5 14.9,92.7 11,92.7 7.8,79.5 7.7,79.5 5.2,92.7 0,92.7 3.6,74 11.5,74 
			14.4,86 14.6,86 21.9,74 30,74 26.3,92.7 		"/>
		<path class="st1" d="M62.8,92.7l-1.1-3.7h-8.9l-2.4,3.7h-6L57.7,74h5.4L69,92.7H62.8z M59.3,79l-4.2,6.4H61L59.3,79z"/>
		<path class="st1" d="M99.5,92.7l-3.5-7.4h-1.9l-1.4,7.4h-5.4L90.8,74h8.8c1.1,0,2.1,0.1,3.2,0.3c0.9,0.2,1.8,0.5,2.6,0.9
			c1.6,0.9,2.4,2.7,1.9,4.4c-0.2,1.3-0.9,2.4-1.9,3.2c-1.1,0.9-2.4,1.5-3.9,1.8l4.4,8L99.5,92.7z M101.8,79.7c0.1-0.4,0-0.7-0.1-1.1
			c-0.2-0.3-0.4-0.5-0.8-0.6c-0.4-0.2-0.8-0.3-1.2-0.3c-0.4-0.1-0.8-0.1-1.3-0.1h-3L94.7,82h2.7c0.5,0,0.9,0,1.4-0.1
			c0.5-0.1,0.9-0.2,1.4-0.3c0.4-0.2,0.8-0.4,1.1-0.7C101.5,80.6,101.7,80.2,101.8,79.7"/>
		<polygon class="st1" points="139.1,92.7 131.9,84.7 130.4,92.7 125,92.7 128.6,74 134,74 132.3,81.7 141.6,74 149.3,74 
			135.8,82.6 145.7,92.7 		"/>
		<polygon class="st1" points="163.6,92.7 167.3,74 182.7,74 182,77.8 171.9,77.8 171.2,81.4 180.8,81.4 180.1,85 170.5,85 
			169.8,88.9 180.4,88.9 179.7,92.7 		"/>
		<polygon class="st1" points="213.7,77.9 210.8,92.7 205.2,92.7 208.1,77.9 201.6,77.9 202.4,74 220.9,74 220.2,77.9 		"/>
	</g>
</g>
</svg>
