<svg xmlns="http://www.w3.org/2000/svg" xmlns:xlink="http://www.w3.org/1999/xlink" width="30" height="17" version="1.1" style=""><rect id="backgroundrect" width="100%" height="100%" x="0" y="0" fill="none" stroke="none"/>
    <!-- Generator: Sketch 49.2 (51160) - http://www.bohemiancoding.com/sketch -->
    <title>Artboard</title>
    <desc>Created with Sketch.</desc>
    <defs/>
    
<g class="currentLayer" style=""><title>Layer 1</title><g id="Artboard" stroke="none" stroke-width="1" fill="#1d88e5" fill-rule="evenodd" class="" fill-opacity="1">
        <g id="3" fill="#1d88e5" fill-rule="nonzero">
            <path d="M10.05438882279663,6.01419472 L4.958576522796631,6.01419472 L4.958576522796631,11.110007 L10.05438882279663,11.110007 L10.05438882279663,6.01419472 zM8.355784742796631,9.41140294 L6.657180632796631,9.41140294 L6.657180632796631,7.71279883 L8.355784742796631,7.71279883 L8.355784742796631,9.41140294 zM15.150201222796632,7.71279883 L15.150201222796632,6.01419472 L13.451597022796632,6.01419472 L13.451597022796632,4.31559061 C13.451597022796632,3.3813583400000002 12.68722522279663,2.6169865 11.752992922796631,2.6169865 L10.05438882279663,2.6169865 L10.05438882279663,0.918382384 L8.355784742796631,0.918382384 L8.355784742796631,2.6169865 L6.657180632796631,2.6169865 L6.657180632796631,0.918382384 L4.958576522796631,0.918382384 L4.958576522796631,2.6169865 L3.259972412796631,2.6169865 C2.325740142796631,2.6169865 1.5613683027966312,3.3813583400000002 1.5613683027966312,4.31559061 L1.5613683027966312,6.01419472 L-0.13723581220336933,6.01419472 L-0.13723581220336933,7.71279883 L1.5613683027966312,7.71279883 L1.5613683027966312,9.41140294 L-0.13723581220336933,9.41140294 L-0.13723581220336933,11.110007 L1.5613683027966312,11.110007 L1.5613683027966312,12.8086111 C1.5613683027966312,13.7428434 2.325740142796631,14.5072152 3.259972412796631,14.5072152 L4.958576522796631,14.5072152 L4.958576522796631,16.2058194 L6.657180632796631,16.2058194 L6.657180632796631,14.5072152 L8.355784742796631,14.5072152 L8.355784742796631,16.2058194 L10.05438882279663,16.2058194 L10.05438882279663,14.5072152 L11.752992922796631,14.5072152 C12.68722522279663,14.5072152 13.451597022796632,13.7428434 13.451597022796632,12.8086111 L13.451597022796632,11.110007 L15.150201222796632,11.110007 L15.150201222796632,9.41140294 L13.451597022796632,9.41140294 L13.451597022796632,7.71279883 L15.150201222796632,7.71279883 zM11.752992922796631,12.8086111 L3.259972412796631,12.8086111 L3.259972412796631,4.31559061 L11.752992922796631,4.31559061 L11.752992922796631,12.8086111 z" id="Shape" fill="#1d88e5"/>
        </g>
    </g></g></svg>