<?xml version="1.0" encoding="UTF-8"?>
<svg width="200px" height="88px" viewBox="0 0 200 88" version="1.1" xmlns="http://www.w3.org/2000/svg" xmlns:xlink="http://www.w3.org/1999/xlink">
    <title>404</title>
    <g id="Channel-Setup-App-View" stroke="none" stroke-width="1" fill="none" fill-rule="evenodd">
        <g id="Channel_error404" transform="translate(-620.000000, -250.000000)" fill="#008CF4" fill-rule="nonzero">
            <path d="M663.389583,337 C664.454861,337 665.35625,336.631429 666.09375,335.894286 C666.83125,335.157143 667.2,334.297143 667.2,333.314286 L667.2,333.314286 L667.2,310.462857 L675.435417,310.462857 C676.329356,310.462857 677.104781,310.192098 677.761691,309.650579 L677.955208,309.48 C678.651736,308.824762 679,308.005714 679,307.022857 C679,306.04 678.651736,305.220952 677.955208,304.565714 C677.258681,303.910476 676.41875,303.582857 675.435417,303.582857 L675.435417,303.582857 L667.2,303.582857 L667.2,254.685714 C667.2,253.792208 666.912179,253.000236 666.336536,252.309799 L666.155208,252.105714 C665.458681,251.368571 664.577778,251 663.5125,251 C663.102778,251 662.590625,251.102381 661.976042,251.307143 C661.361458,251.511905 660.849306,251.900952 660.439583,252.474286 L660.439583,252.474286 L620.860417,304.197143 C620.286806,304.934286 620,305.753333 620,306.654286 C620,307.637143 620.36875,308.517619 621.10625,309.295714 C621.84375,310.07381 622.704167,310.462857 623.6875,310.462857 L623.6875,310.462857 L659.825,310.462857 L659.825,333.314286 C659.825,334.198857 660.0905,334.983914 660.6215,335.669457 L660.808333,335.894286 C661.463889,336.631429 662.324306,337 663.389583,337 Z M660,303 L630,303 L660,264 L660,303 Z M720.938144,338 C727.701031,338 733.28866,336.044444 737.701031,332.133333 C742.113402,328.222222 745.43299,322.946296 747.659794,316.305556 C749.886598,309.664815 751,302.22963 751,294 C751,285.688889 749.886598,278.212963 747.659794,271.572222 C745.43299,264.931481 742.113402,259.675926 737.701031,255.805556 C733.28866,251.935185 727.701031,250 720.938144,250 C714.340206,250 708.814433,251.935185 704.360825,255.805556 C699.907216,259.675926 696.56701,264.931481 694.340206,271.572222 C692.113402,278.212963 691,285.688889 691,294 C691,302.22963 692.113402,309.664815 694.340206,316.305556 C696.56701,322.946296 699.907216,328.222222 704.360825,332.133333 C708.814433,336.044444 714.340206,338 720.938144,338 Z M720.938375,330 C716.172736,330 712.167134,328.491904 708.921569,325.475712 C705.676004,322.45952 703.211018,318.200168 701.526611,312.697655 C699.842204,307.195142 699,300.816304 699,293.561139 C699,286.224456 699.842204,279.804858 701.526611,274.302345 C703.211018,268.799832 705.676004,264.54048 708.921569,261.524288 C712.167134,258.508096 716.172736,257 720.938375,257 C725.786181,257 729.832866,258.508096 733.078431,261.524288 C736.323996,264.54048 738.788982,268.799832 740.473389,274.302345 C742.157796,279.804858 743,286.224456 743,293.561139 C743,300.816304 742.157796,307.195142 740.473389,312.697655 C738.788982,318.200168 736.323996,322.45952 733.078431,325.475712 C729.832866,328.491904 725.786181,330 720.938375,330 Z M804.389583,337 C805.454861,337 806.35625,336.631429 807.09375,335.894286 C807.83125,335.157143 808.2,334.297143 808.2,333.314286 L808.2,333.314286 L808.2,310.462857 L816.435417,310.462857 C817.329356,310.462857 818.104781,310.192098 818.761691,309.650579 L818.955208,309.48 C819.651736,308.824762 820,308.005714 820,307.022857 C820,306.04 819.651736,305.220952 818.955208,304.565714 C818.258681,303.910476 817.41875,303.582857 816.435417,303.582857 L816.435417,303.582857 L808.2,303.582857 L808.2,254.685714 C808.2,253.792208 807.912179,253.000236 807.336536,252.309799 L807.155208,252.105714 C806.458681,251.368571 805.577778,251 804.5125,251 C804.102778,251 803.590625,251.102381 802.976042,251.307143 C802.361458,251.511905 801.849306,251.900952 801.439583,252.474286 L801.439583,252.474286 L761.860417,304.197143 C761.286806,304.934286 761,305.753333 761,306.654286 C761,307.637143 761.36875,308.517619 762.10625,309.295714 C762.84375,310.07381 763.704167,310.462857 764.6875,310.462857 L764.6875,310.462857 L800.825,310.462857 L800.825,333.314286 C800.825,334.198857 801.0905,334.983914 801.6215,335.669457 L801.808333,335.894286 C802.463889,336.631429 803.324306,337 804.389583,337 Z M801,303 L771,303 L801,264 L801,303 Z" id="404"></path>
        </g>
    </g>
</svg>