<?xml version="1.0" encoding="UTF-8"?>
<svg width="657px" height="52px" viewBox="0 0 657 52" version="1.1" xmlns="http://www.w3.org/2000/svg" xmlns:xlink="http://www.w3.org/1999/xlink">
    <title>Group 2</title>
    <g id="Channel-Setup-App-View" stroke="none" stroke-width="1" fill="none" fill-rule="evenodd">
        <g id="Channel_error404" transform="translate(-764.000000, -423.000000)">
            <g id="Group-2" transform="translate(764.800000, 423.768500)">
                <path d="M42,15.3502053 C42,15.6182053 40.782,15.8352053 39.284,15.8352053 L2.716,15.8352053 C1.218,15.8352053 0,15.6182053 0,15.3502053 L0,15.3202053 C0,15.0527053 1.218,14.8352053 2.716,14.8352053 L39.284,14.8352053 C40.782,14.8352053 42,15.0527053 42,15.3202053 L42,15.3502053 Z" id="Stroke-9" fill="#343A40"></path>
                <path d="M42,34.8765211 C42,35.1445211 40.782,35.3615211 39.284,35.3615211 L2.716,35.3615211 C1.218,35.3615211 0,35.1445211 0,34.8765211 L0,34.8465211 C0,34.5790211 1.218,34.3615211 2.716,34.3615211 L39.284,34.3615211 C40.782,34.3615211 42,34.5790211 42,34.8465211 L42,34.8765211 Z" id="Stroke-13" fill="#343A40"></path>
                <g id="Group-18" transform="translate(64.400000, 23.547289)">
                    <line x1="590.8" y1="1.84110526" x2="0" y2="1.84110526" id="Fill-15" fill="#FFFFFF"></line>
                    <line x1="580.3" y1="2.18421053" x2="0" y2="1.84110526" id="Stroke-17" stroke="#6C757D"></line>
                </g>
                <polygon id="Fill-19" points="30.65244 0.111578947 30.65244 5.43389474 48.27844 5.43389474 62.51084 18.8317368 78.61364 19.9977368 78.46524 31.2058421 62.32884 32.9269474 47.58404 46.1044211 29.98044 46.1044211 29.98044 50.8186316 22.16564 50.7182105 22.16564 0"></polygon>
                <polygon id="Stroke-21" fill="#6C757D" points="30.65244 0.111578947 30.65244 5.43389474 48.27844 5.43389474 62.51084 18.8317368 78.61364 19.9977368 78.46524 31.2058421 62.32884 32.9269474 47.58404 46.1044211 29.98044 46.1044211 29.98044 50.8186316 22.16564 50.7182105 22.16564 0"></polygon>
            </g>
        </g>
    </g>
</svg>