<svg xmlns="http://www.w3.org/2000/svg" xmlns:xlink="http://www.w3.org/1999/xlink" width="70px" height="70px" viewBox="0 0 70 70" version="1.1">
    <!-- Generator: Sketch 53.2 (72643) - https://sketchapp.com -->
    <title>Check</title>
    <desc>Created with Sketch.</desc>
    <g id="RFQ-Process-Admin" stroke="none" stroke-width="1" fill="none" fill-rule="evenodd">
        <g id="07_RFQ_Admin_QuoteComplete" transform="translate(-916.000000, -290.000000)" fill-rule="nonzero">
            <g id="Check" transform="translate(916.000000, 290.000000)">
                <g id="completed-task">
                    <path d="M4.42307692,2.5 L53.0769231,2.5 C55.51955,2.5 57.5,4.44989604 57.5,6.85483871 L57.5,65.6451613 C57.5,68.050104 55.51955,70 53.0769231,70 L4.42307692,70 C1.98044997,70 0,68.050104 0,65.6451613 L0,6.85483871 C0,4.44989604 1.98044997,2.5 4.42307692,2.5 Z" id="Path" fill="#FFD13A"/>
                    <polygon id="Path" fill="#FAECD8" points="4.16666667 50.567853 4.16666667 5.83333333 52.5 5.83333333 52.5 65 18.6357718 65"/>
                    <polygon id="Path" fill="#F4D7AF" points="18.3333333 50.8333333 18.3333333 65 4.16666667 50.8333333"/>
                    <path d="M17.5,8.88888889 L17.5,0 L40,0 L40,8.88888889 C40,11.343316 37.9851074,13.3333333 35.5,13.3333333 L22,13.3333333 C19.5148926,13.3333333 17.5,11.343316 17.5,8.88888889 Z" id="Path" fill="#FFAE3A"/>
                    <path d="M70,50 C70,61.0454644 61.0454644,70 50,70 C38.9545356,70 30,61.0454644 30,50 C30,38.9545356 38.9545356,30 50,30 C61.0454644,30 70,38.9545356 70,50 Z" id="Path" fill="#4DA646"/>
                    <g id="Group" transform="translate(12.500000, 17.500000)" fill="#F4D7AF">
                        <path d="M11.0119048,0 L28.6309524,0 C29.8472087,0 30.8333333,0.986124606 30.8333333,2.20238095 C30.8333333,3.4186373 29.8472087,4.4047619 28.6309524,4.4047619 L11.0119048,4.4047619 C9.79564842,4.4047619 8.80952381,3.4186373 8.80952381,2.20238095 C8.80952381,0.986124606 9.79564842,0 11.0119048,0 Z" id="Path"/>
                        <polygon id="Path" points="0 0 4.4047619 0 4.4047619 4.4047619 0 4.4047619"/>
                        <polygon id="Path" points="0 8.80952381 4.4047619 8.80952381 4.4047619 13.2142857 0 13.2142857"/>
                        <polygon id="Path" points="0 17.6190476 4.4047619 17.6190476 4.4047619 22.0238095 0 22.0238095"/>
                        <polygon id="Path" points="0 26.4285714 4.4047619 26.4285714 4.4047619 30.8333333 0 30.8333333"/>
                        <path d="M11.0119048,8.80952381 L24.2261905,8.80952381 C25.4424468,8.80952381 26.4285714,9.79564842 26.4285714,11.0119048 C26.4285714,12.2281611 25.4424468,13.2142857 24.2261905,13.2142857 L11.0119048,13.2142857 C9.79564842,13.2142857 8.80952381,12.2281611 8.80952381,11.0119048 C8.80952381,9.79564842 9.79564842,8.80952381 11.0119048,8.80952381 Z" id="Path"/>
                        <path d="M11.0119048,17.6190476 L15.4166667,17.6190476 C16.632923,17.6190476 17.6190476,18.6051722 17.6190476,19.8214286 C17.6190476,21.0376849 16.632923,22.0238095 15.4166667,22.0238095 L11.0119048,22.0238095 C9.79564842,22.0238095 8.80952381,21.0376849 8.80952381,19.8214286 C8.80952381,18.6051722 9.79564842,17.6190476 11.0119048,17.6190476 Z" id="Path"/>
                    </g>
                </g>
                <polygon id="" fill="#FFFFFF" points="47 55.421875 59.4140625 43.0078125 61 44.6484375 47 58.6484375 40.4921875 52.140625 42.1328125 50.5"/>
            </g>
        </g>
    </g>
</svg>
